<svg width="21" height="17" viewBox="0 0 21 17" fill="none" xmlns="http://www.w3.org/2000/svg">
<path d="M19.2609 7.22941C18.487 4.35422 17.6143 2.86862 17.6002 2.84197C17.5505 2.77631 16.3172 1.18041 13.3448 0L12.9521 1.15635C14.3661 1.71794 15.3693 2.40304 15.9211 2.84571C14.2739 2.31381 12.3144 1.98805 10.5789 1.98805C8.84335 1.98805 6.88384 2.31381 5.23666 2.84571C5.78835 2.40308 6.79156 1.71794 8.20561 1.15635L7.81284 0C4.84055 1.18041 3.6073 2.77631 3.55755 2.84197C3.54346 2.86862 2.6707 4.35422 1.89686 7.22941C1.15104 10.0002 0.867713 13.909 0.857422 14.0658C0.923877 14.1781 2.45234 17 6.61787 17L7.67371 15.3467C6.4908 15.0071 5.36285 14.4594 4.33033 13.7161L4.96158 12.6907C6.62732 13.8896 8.56975 14.5234 10.5789 14.5234C12.588 14.5234 14.5304 13.8896 16.1961 12.6907L16.8274 13.7161C15.7949 14.4594 14.6669 15.0071 13.484 15.3467L14.5398 17C18.7054 17 20.2338 14.1781 20.3003 14.0658C20.29 13.909 20.0067 10.0002 19.2609 7.22941ZM7.94503 10.4522H6.8058V8.39898H7.94503V10.4522ZM14.3519 10.4522H13.2127V8.39898H14.3519V10.4522Z" fill="#F7A443"/>
</svg>
