<svg width="18" height="13" viewBox="0 0 18 13" fill="none" xmlns="http://www.w3.org/2000/svg">
<path d="M17.7876 1.539C17.158 1.8 16.4871 1.973 15.7877 2.057C16.5073 1.651 17.0564 1.013 17.3146 0.244C16.6438 0.622 15.9031 0.889 15.1137 1.038C14.4767 0.397 13.5688 0 12.5784 0C10.6568 0 9.10982 1.474 9.10982 3.281C9.10982 3.541 9.1331 3.791 9.19024 4.029C6.30471 3.896 3.75142 2.589 2.03619 0.598C1.73673 1.089 1.56108 1.651 1.56108 2.256C1.56108 3.392 2.18009 4.399 3.10279 4.982C2.54515 4.972 1.99809 4.819 1.53463 4.578C1.53463 4.588 1.53463 4.601 1.53463 4.614C1.53463 6.208 2.73773 7.532 4.31541 7.837C4.03289 7.91 3.72497 7.945 3.40541 7.945C3.1832 7.945 2.95888 7.933 2.74831 7.889C3.19802 9.188 4.47413 10.143 5.9915 10.174C4.81062 11.047 3.31124 11.573 1.68806 11.573C1.40342 11.573 1.13042 11.561 0.857422 11.528C2.39489 12.465 4.217 13 6.18196 13C12.5689 13 16.0607 8 16.0607 3.666C16.0607 3.521 16.0554 3.381 16.048 3.242C16.7369 2.78 17.3157 2.203 17.7876 1.539Z" fill="#F7A443"/>
</svg>
